:SAMPLES-PER-SECOND 30
:FULLY-SPECIFIED
:DEGREES
301
root  -4.06606 38.8883 29.9568 179.615 12.548 176.289
RightUpLeg  -16.5417 -11.9221 -13.2976
RightLeg  30.6417 3.85144 2.23911
RightFoot  -3.5804 -1.30555 18.6734
RightToes  -1.74624e-010 0 -3.6325e-017
Spine  10.1683 1.41755 -7.30557
Spine1  14.2443 -0.723433 4.09092
HEad  -20.1459 6.84991 -2.34429
LeftShoulder1  0.915254 -1.33845 -11.7509
LeftArm  17.1511 6.65883 -54.3043
LeftForeArm  93.065 -77.1368 -119.442
LeftHand  -1.30758 0.171813 28.7783
RightShoulder  0.728603 0.276568 12.2743
RightArm  13.319 1.32557 64.3583
RightForeArm  58.4831 77.686 104.093
RightHand  -1.18621 1.57489 -19.7253
LeftUpLeg  -6.26414 6.8396 2.45865
LeftLeg  22.2142 -0.0512106 0.293977
LeftFoot  -16.162 -0.300046 -9.40993
LeftToes  -5.82109e-011 1.10366e-010 -8.03124e-011
302
root  -4.09238 38.7883 29.7983 179.431 14.2249 176.117
RightUpLeg  -18.4489 -11.7527 -13.6792
RightLeg  33.5958 4.99436 3.31927
RightFoot  -1.69261 -1.82207 21.2088
RightToes  -1.74624e-010 0 -3.6325e-017
Spine  9.83967 1.13219 -8.59469
Spine1  14.2389 -1.1854 4.07366
HEad  -20.1775 8.85003 -2.73141
LeftShoulder1  0.925723 -1.27184 -12.2889
LeftArm  16.5811 6.28927 -55.04
LeftForeArm  83.1072 -77.9645 -110.582
LeftHand  -1.50795 -0.203883 30.8764
RightShoulder  0.70475 0.0860714 12.6799
RightArm  10.1608 -1.70594 64.4844
RightForeArm  35.0406 77.6955 71.034
RightHand  -1.72991 3.852 -21.7544
LeftUpLeg  -5.9821 6.66387 2.07959
LeftLeg  22.959 1.71913 1.10142
LeftFoot  -16.8457 -0.34097 -9.15481
LeftToes  -5.82109e-011 1.10366e-010 -8.03124e-011
303
root  -4.01825 38.7099 29.5799 179.386 16.389 175.965
RightUpLeg  -20.5484 -11.723 -13.798
RightLeg  36.092 3.62811 2.57073
RightFoot  -0.292663 -2.24308 22.9167
RightToes  -1.74624e-010 0 -3.6325e-017
Spine  9.51256 1.03106 -9.85077
Spine1  13.5997 -1.37856 4.01156
HEad  -19.7036 10.8092 -3.00416
LeftShoulder1  0.853635 -0.782451 -12.8725
LeftArm  16.9451 6.34147 -56.1735
LeftForeArm  69.8356 -78.5312 -98.5186
LeftHand  -1.79592 -0.603847 34.0813
RightShoulder  0.675638 -0.165078 13.3619
RightArm  6.69363 -4.94974 64.3788
RightForeArm  13.3757 73.1243 41.7064
RightHand  -2.15497 5.22882 -23.5517
LeftUpLeg  -5.33286 6.87868 1.96738
LeftLeg  23.1513 2.9933 1.60882
LeftFoot  -17.7728 -0.463003 -10.1088
LeftToes  -5.82109e-011 1.10366e-010 -8.03124e-011
304
root  -3.86142 38.6917 29.352 179.535 18.1463 175.994
RightUpLeg  -22.3689 -12.2966 -13.7265
RightLeg  37.248 -0.818912 -0.912858
RightFoot  -0.302837 -2.17236 22.1756
RightToes  -1.74624e-010 0 -3.6325e-017
Spine  9.30816 0.913575 -11.1753
Spine1  12.5878 -1.78024 4.84356
HEad  -19.0708 12.6343 -3.34296
LeftShoulder1  0.749136 -0.164633 -13.4193
LeftArm  17.734 6.03856 -58.1413
LeftForeArm  49.4123 -78.3991 -80.1315
LeftHand  -2.33724 -1.37763 38.8673
RightShoulder  0.67834 -0.305209 14.4402
RightArm  2.13372 -8.14392 64.004
RightForeArm  3.39459 65.1851 25.3451
RightHand  -2.59552 6.24233 -25.7388
LeftUpLeg  -4.61288 7.89422 2.33793
LeftLeg  22.8962 3.23388 1.62612
LeftFoot  -18.3681 -0.569701 -11.0469
LeftToes  -5.82109e-011 1.10366e-010 -8.03124e-011
305
root  -3.65246 38.6591 29.1465 179.797 18.7877 176.33
RightUpLeg  -23.52 -13.3784 -13.7391
RightLeg  36.7469 -5.91457 -4.95953
RightFoot  -1.24968 -1.76592 19.711
RightToes  -1.74624e-010 0 -3.6325e-017
Spine  9.32448 0.52037 -12.3792
Spine1  11.876 -2.67634 6.46703
HEad  -18.9535 14.4083 -3.83799
LeftShoulder1  0.706133 0.122854 -13.9241
LeftArm  17.6019 4.69819 -60.9255
LeftForeArm  27.873 -77.095 -63.5549
LeftHand  -3.03734 -2.19668 44.5541
RightShoulder  0.711912 -0.29424 15.5177
RightArm  -3.51326 -10.9482 63.5564
RightForeArm  -1.16781 55.8056 16.8235
RightHand  -3.28118 7.53011 -29.1798
LeftUpLeg  -4.36904 8.86658 3.11951
LeftLeg  23.1729 2.6267 1.48321
LeftFoot  -18.6553 -0.630491 -11.5789
LeftToes  -5.82109e-011 1.10366e-010 -8.03124e-011
